<svg aria-hidden="true" xmlns="http://www.w3.org/2000/svg">
  <defs>

    <symbol id="icon-linkedin" viewBox="0 0 32 32">
      <path d="M15.899 0c-8.781 0-15.899 7.118-15.899 15.899s7.118 15.899 15.899 15.899c8.781 0 15.899-7.118 15.899-15.899s-7.118-15.899-15.899-15.899zM12.007 22.489h-3.22v-10.361h3.22v10.361zM10.377 10.856c-1.017 0-1.674-0.72-1.674-1.611 0-0.909 0.677-1.608 1.716-1.608s1.674 0.699 1.694 1.608c0 0.891-0.656 1.611-1.736 1.611zM23.766 22.489h-3.22v-5.742c0-1.337-0.467-2.244-1.631-2.244-0.889 0-1.418 0.614-1.651 1.206-0.086 0.21-0.108 0.508-0.108 0.805v5.974h-3.221v-7.055c0-1.293-0.041-2.375-0.085-3.306h2.797l0.147 1.439h0.065c0.424-0.676 1.462-1.673 3.2-1.673 2.118 0 3.706 1.419 3.706 4.47v6.126z"/>
    </symbol>

    <symbol id="icon-email" viewBox="0 0 32 32">
      <path d="M15.864 0c-8.762 0-15.864 7.103-15.864 15.864s7.102 15.864 15.864 15.864c8.761 0 15.864-7.103 15.864-15.864s-7.103-15.864-15.864-15.864zM16.050 25.143c-5.113 0-9.255-4.152-9.255-9.279s4.142-9.278 9.255-9.278c2.499 0 4.587 0.922 6.189 2.418l-2.609 2.615c-0.972-0.928-2.204-1.403-3.58-1.403-3.054 0-5.536 2.586-5.536 5.648s2.482 5.654 5.536 5.654c2.771 0 4.656-1.589 5.044-3.769h-5.044v-3.619h8.705c0.116 0.62 0.179 1.27 0.179 1.948 0 5.3-3.54 9.07-8.884 9.07z"/>
    </symbol>

    <symbol id="icon-github" viewBox="0 0 33 32">
      <path d="M16.009 0c-8.845 0-16.009 7.164-16.009 16.009 0 7.084 4.583 13.068 10.946 15.189 0.801 0.14 1.101-0.34 1.101-0.76 0-0.38-0.02-1.641-0.02-2.982-4.022 0.74-5.063-0.981-5.383-1.881-0.18-0.46-0.961-1.881-1.641-2.261-0.56-0.3-1.361-1.041-0.02-1.061 1.261-0.02 2.161 1.161 2.461 1.641 1.441 2.421 3.742 1.741 4.663 1.321 0.14-1.041 0.56-1.741 1.021-2.141-3.562-0.4-7.284-1.781-7.284-7.905 0-1.741 0.62-3.182 1.641-4.303-0.16-0.4-0.72-2.041 0.16-4.243 0 0 1.341-0.42 4.403 1.641 1.281-0.36 2.642-0.54 4.002-0.54s2.722 0.18 4.002 0.54c3.062-2.081 4.403-1.641 4.403-1.641 0.88 2.201 0.32 3.842 0.16 4.243 1.021 1.121 1.641 2.541 1.641 4.303 0 6.144-3.742 7.504-7.304 7.905 0.58 0.5 1.081 1.461 1.081 2.962 0 2.141-0.02 3.862-0.02 4.403 0 0.42 0.3 0.921 1.101 0.76 3.178-1.073 5.94-3.116 7.896-5.84s3.009-5.994 3.01-9.349c0-8.845-7.164-16.009-16.009-16.009z"/>
    </symbol>

  </defs>
</svg>